<svg width="375" height="332" viewBox="0 0 375 332" version="1.1" xmlns="http://www.w3.org/2000/svg" xmlns:xlink="http://www.w3.org/1999/xlink">
<title>Mask Group</title>
<desc>Created using Figma</desc>
<g id="Canvas" transform="translate(5164 -1742)">
<g id="Mask Group">
<mask id="mask0_alpha" mask-type="alpha">
<g id="Rectangle 2">
<use xlink:href="#path0_fill" transform="translate(-5164 1594)" fill="#1D2733"/>
</g>
</mask>
<g id="roman" mask="url(#mask0_alpha)">
<use xlink:href="#path1_fill" transform="translate(-5357 1578)" fill="#FF412D" fill-opacity="0.7"/>
</g>
</g>
</g>
<defs>
<path id="path0_fill" d="M 0 0L 375 0L 375 667L 0 667L 0 0Z"/>
<path id="path1_fill" d="M 305.94 368.17C 319.89 359.8 359.415 336.55 359.415 271.45C 359.415 236.575 343.14 208.675 319.89 192.4C 296.64 176.125 266.415 169.15 226.89 169.15L 87.3896 169.15L 87.3896 490L 192.48 490L 192.48 383.05L 205.965 383.05L 257.115 490L 378.015 490L 305.94 368.17ZM 253.395 276.1C 253.395 290.05 246.885 294.7 241.77 298.42C 237.585 301.675 230.145 304 218.52 304L 192.015 304L 192.015 248.2L 218.52 248.2C 230.145 248.2 237.12 250.525 241.77 254.245C 246.42 257.5 253.395 262.15 253.395 276.1ZM 729.162 330.04C 729.162 225.415 654.762 164.035 554.787 164.035C 454.812 164.035 380.412 225.415 380.412 330.04C 380.412 434.665 454.812 495.58 554.787 495.58C 654.762 495.58 729.162 434.665 729.162 330.04ZM 623.142 327.715C 623.142 371.89 596.637 402.58 554.787 402.58C 512.937 402.58 485.967 371.89 485.967 327.715C 485.967 283.54 512.937 252.85 554.787 252.85C 596.637 252.85 623.142 283.54 623.142 327.715ZM 1122.11 169.15L 987.255 169.15L 946.335 343.525L 905.88 169.15L 771.03 169.15L 752.43 490L 855.66 490L 859.38 306.325L 901.23 490L 991.905 490L 1033.76 306.325L 1037.48 490L 1140.71 490L 1122.11 169.15ZM 1377.64 169.15L 1261.39 169.15L 1149.79 490L 1259.06 490L 1271.15 444.895L 1362.76 444.895L 1375.31 490L 1489.24 490L 1377.64 169.15ZM 1293.47 364.45L 1317.19 278.425L 1340.9 364.45L 1293.47 364.45ZM 1814.72 169.15L 1712.42 169.15L 1712.42 290.05C 1712.42 313.3 1714.74 348.175 1714.74 348.175L 1621.74 169.15L 1507.82 169.15L 1507.82 490L 1610.12 490L 1610.12 369.1C 1610.12 345.85 1607.79 310.975 1607.79 310.975L 1705.44 490L 1814.72 490L 1814.72 169.15Z"/>
</defs>
</svg>
